<svg id="Layer_1" data-name="Layer 1" xmlns="http://www.w3.org/2000/svg" viewBox="0 0 169.49 44.86"><defs><style>.cls-1{fill:#fcf;}.cls-2{fill:#ccecff;}.cls-3{fill:#a6a6a6;}.cls-4{fill:#fff;}</style></defs><title>forevercorp-tagline2</title><path class="cls-1" d="M14.76,4.11a5.64,5.64,0,0,0-2-.5c-1.84,0-2.52,1.4-2.52,2.88V8.83h4.53v2.8H10.23V25.56H6.92V11.63H4.11V8.83H6.92V5.3C6.92,2.46,8.54.62,12.06.62a7.56,7.56,0,0,1,2.7.5Z" transform="translate(-4.11 -0.62)"/><path class="cls-1" d="M23.8,26A8.57,8.57,0,0,1,15,17.18a8.68,8.68,0,1,1,17.35,0A8.68,8.68,0,0,1,23.8,26Zm5-8.78c0-3.06-2.05-5.8-5.11-5.8-2.77,0-5.11,2.56-5.11,5.83,0,3.06,2.16,5.8,5,5.8C26.57,23,28.8,20.38,28.8,17.18Z" transform="translate(-4.11 -0.62)"/><path class="cls-1" d="M44.75,12.14a4.81,4.81,0,0,0-1.8-.47c-2.66,0-4.64,2.88-4.64,6.12v7.77H35V8.83h3L38.27,12h.07A4.59,4.59,0,0,1,43,8.58a6.74,6.74,0,0,1,1.8.21Z" transform="translate(-4.11 -0.62)"/><path class="cls-1" d="M49,17.14a5.58,5.58,0,0,0,5.65,5.62c2.38,0,4.54-1.44,6.23-3.13v4A11.76,11.76,0,0,1,54,26a8.52,8.52,0,0,1-8.57-8.78,8.58,8.58,0,0,1,8.42-8.75c4.07,0,7.6,2.92,7.6,8.28v.43Zm8.57-2.66a3.68,3.68,0,0,0-3.71-3.31,4.73,4.73,0,0,0-4.43,3.31Z" transform="translate(-4.11 -0.62)"/><path class="cls-1" d="M66.57,8.83l4.71,12.92L76.11,8.83h3.6L72.83,25.56H69.55L62.86,8.83Z" transform="translate(-4.11 -0.62)"/><path class="cls-1" d="M83.92,17.14a5.57,5.57,0,0,0,5.65,5.62c2.38,0,4.54-1.44,6.23-3.13v4A11.77,11.77,0,0,1,88.92,26a8.51,8.51,0,0,1-8.56-8.78,8.58,8.58,0,0,1,8.42-8.75c4.07,0,7.59,2.92,7.59,8.28v.43Zm8.57-2.66a3.69,3.69,0,0,0-3.71-3.31,4.73,4.73,0,0,0-4.43,3.31Z" transform="translate(-4.11 -0.62)"/><path class="cls-1" d="M109.33,12.14a4.76,4.76,0,0,0-1.8-.47c-2.66,0-4.64,2.88-4.64,6.12v7.77H99.58V8.83h3l.25,3.13h.08a4.58,4.58,0,0,1,4.6-3.38,6.74,6.74,0,0,1,1.8.21Z" transform="translate(-4.11 -0.62)"/><path class="cls-2" d="M124,12.17a8.45,8.45,0,0,0-5.43-2.34c-3.71,0-6.34,3.78-6.34,7.49s2.52,7.24,6.12,7.24A9,9,0,0,0,124,22v1.83A9.29,9.29,0,0,1,118.41,26c-4.29,0-7.85-3.67-7.85-8.67,0-5.44,3.85-8.86,8.13-8.86a9.17,9.17,0,0,1,5.33,1.8Z" transform="translate(-4.11 -0.62)"/><path class="cls-2" d="M133.63,26c-4.67,0-8.06-3.85-8.06-8.78s3.24-8.75,7.81-8.75,7.92,4,7.92,8.89S137.7,26,133.63,26Zm6-8.75c0-4.14-2.81-7.38-6.23-7.38-3.27,0-6.12,3.21-6.12,7.31s2.81,7.42,6.19,7.42S139.61,21.46,139.61,17.21Z" transform="translate(-4.11 -0.62)"/><path class="cls-2" d="M153,10.59a5.63,5.63,0,0,0-2-.43c-3,0-4.65,2.91-4.65,5.79v9.61h-1.55V8.83h1.34V12h.07c1-2.23,2.59-3.38,4.75-3.38a5,5,0,0,1,2,.4Z" transform="translate(-4.11 -0.62)"/><path class="cls-2" d="M162.4,26a7.75,7.75,0,0,1-5.11-2v9.43h-1.55V8.83h1.4v3.45h.07c1.12-2.45,2.92-3.85,5.58-3.85,4.29,0,7.45,4,7.45,8.64C170.24,22,166.68,26,162.4,26Zm-5.11-3.45a8.18,8.18,0,0,0,5.11,2c3.35,0,6.15-3.42,6.15-7.53s-2.62-7.2-5.94-7.2c-3.06,0-5.32,2.85-5.32,6.34Z" transform="translate(-4.11 -0.62)"/><path class="cls-3" d="M172.41,23.55a1.17,1.17,0,1,1-1.19,1.15A1.19,1.19,0,0,1,172.41,23.55Z" transform="translate(-4.11 -0.62)"/><path class="cls-4" d="M15.44,36.75h1v8.57h-1Z" transform="translate(-4.11 -0.62)"/><path class="cls-4" d="M21.72,40.9c0-.82-.37-1.12-1-1.12a1.82,1.82,0,0,0-1.45,1v4.55h-.91v-6.2h.91V40a2.3,2.3,0,0,1,1.8-1c1.05,0,1.56.57,1.56,1.69v4.67h-.92Z" transform="translate(-4.11 -0.62)"/><path class="cls-4" d="M23.72,39.12h1l1.54,5.11,1.55-5.11h1l-2,6.2h-1Z" transform="translate(-4.11 -0.62)"/><path class="cls-4" d="M32.1,39c1.63,0,2.46,1.47,2.46,3.28v.28h-4c0,1.25.68,2.19,1.79,2.19A1.92,1.92,0,0,0,33.8,44l.49.54a2.62,2.62,0,0,1-2,1c-1.66,0-2.66-1.37-2.66-3.27S30.53,39,32.1,39Zm-1.57,2.88h3.11c0-1-.42-2.11-1.55-2.11S30.56,40.93,30.53,41.84Z" transform="translate(-4.11 -0.62)"/><path class="cls-4" d="M36,44a2.16,2.16,0,0,0,1.62.78c.72,0,1.19-.38,1.19-1s-.61-.93-1.29-1.22c-.85-.33-1.8-.7-1.8-1.9a1.76,1.76,0,0,1,2-1.67,2.48,2.48,0,0,1,1.89.8l-.44.63a1.8,1.8,0,0,0-1.44-.68c-.68,0-1.11.37-1.11.87s.58.85,1.24,1.12c.86.35,1.86.73,1.86,2a1.84,1.84,0,0,1-2.07,1.78,2.63,2.63,0,0,1-2.09-.88Z" transform="translate(-4.11 -0.62)"/><path class="cls-4" d="M41.37,44.08V39.93h-.83v-.81h.83v-1.7h.92v1.7h1.05v.81H42.29v4c0,.47.14.74.5.74a.69.69,0,0,0,.54-.24l.28.69a1.3,1.3,0,0,1-1,.38C41.76,45.48,41.37,45,41.37,44.08Z" transform="translate(-4.11 -0.62)"/><path class="cls-4" d="M51,40.83c0-.67-.27-1-.86-1a1.7,1.7,0,0,0-1.35,1v4.55h-.93V40.83c0-.67-.27-1-.87-1a1.75,1.75,0,0,0-1.35,1v4.55h-.91v-6.2h.91V40a2.16,2.16,0,0,1,1.7-1,1.31,1.31,0,0,1,1.4,1.11A2.13,2.13,0,0,1,50.48,39c.91,0,1.44.5,1.44,1.62v4.74H51Z" transform="translate(-4.11 -0.62)"/><path class="cls-4" d="M56,39c1.63,0,2.45,1.47,2.45,3.28v.28h-4c0,1.25.68,2.19,1.78,2.19A1.91,1.91,0,0,0,57.67,44l.49.54a2.6,2.6,0,0,1-2,1c-1.66,0-2.66-1.37-2.66-3.27S54.41,39,56,39Zm-1.57,2.88h3.11c0-1-.43-2.11-1.56-2.11S54.43,40.93,54.41,41.84Z" transform="translate(-4.11 -0.62)"/><path class="cls-4" d="M63.29,40.9c0-.82-.38-1.12-1-1.12a1.81,1.81,0,0,0-1.45,1v4.55h-.92v-6.2h.92V40a2.3,2.3,0,0,1,1.8-1c1.05,0,1.56.57,1.56,1.69v4.67h-.92Z" transform="translate(-4.11 -0.62)"/><path class="cls-4" d="M66.24,44.08V39.93h-.82v-.81h.82v-1.7h.93v1.7h1v.81h-1v4c0,.47.14.74.5.74a.7.7,0,0,0,.54-.24l.28.69a1.34,1.34,0,0,1-1,.38C66.64,45.48,66.24,45,66.24,44.08Z" transform="translate(-4.11 -0.62)"/><path class="cls-4" d="M70.21,44.08a.69.69,0,1,1,0,1.37.69.69,0,0,1,0-1.37Z" transform="translate(-4.11 -0.62)"/><path class="cls-4" d="M85.21,38.4l-2.29,6.92h-.4L80.26,38.4v6.92h-1V36.75h1.43L82.73,43l2.08-6.29h1.4v8.57h-1Z" transform="translate(-4.11 -0.62)"/><path class="cls-4" d="M91.15,44.65a2,2,0,0,1-1.64.83,1.9,1.9,0,0,1-1.87-2.07,1.87,1.87,0,0,1,1.87-2,2,2,0,0,1,1.64.79V41.08a1.18,1.18,0,0,0-1.28-1.32,2,2,0,0,0-1.55.76l-.41-.66A2.86,2.86,0,0,1,90,39a1.83,1.83,0,0,1,2,2v4.34h-.92Zm0-1.81a1.51,1.51,0,0,0-1.34-.79,1.24,1.24,0,0,0-1.23,1.37,1.26,1.26,0,0,0,1.23,1.39A1.51,1.51,0,0,0,91.15,44Z" transform="translate(-4.11 -0.62)"/><path class="cls-4" d="M97.3,44.44a1.94,1.94,0,0,1-1.63,1c-1.39,0-2.22-1.3-2.22-3.25S94.27,39,95.67,39A1.86,1.86,0,0,1,97.3,40V36.75h.93v8.57H97.3Zm0-3.64a1.66,1.66,0,0,0-1.4-1c-1,0-1.49,1.1-1.49,2.45s.48,2.42,1.49,2.42a1.64,1.64,0,0,0,1.4-1Z" transform="translate(-4.11 -0.62)"/><path class="cls-4" d="M102.13,39c1.63,0,2.46,1.47,2.46,3.28v.28h-4c0,1.25.69,2.19,1.79,2.19a1.92,1.92,0,0,0,1.48-.76l.49.54a2.61,2.61,0,0,1-2,1c-1.65,0-2.66-1.37-2.66-3.27S100.56,39,102.13,39Zm-1.57,2.88h3.11c0-1-.42-2.11-1.55-2.11S100.59,40.93,100.56,41.84Z" transform="translate(-4.11 -0.62)"/><path class="cls-4" d="M108.85,36.75h.92V40A1.87,1.87,0,0,1,111.4,39c1.4,0,2.22,1.34,2.22,3.27s-.82,3.25-2.22,3.25a1.93,1.93,0,0,1-1.63-1v.88h-.92Zm2.32,7.9c1,0,1.49-1.09,1.49-2.42s-.48-2.45-1.49-2.45a1.7,1.7,0,0,0-1.4,1v2.84A1.67,1.67,0,0,0,111.17,44.65Z" transform="translate(-4.11 -0.62)"/><path class="cls-4" d="M117.39,39c1.63,0,2.45,1.47,2.45,3.28v.28h-4c0,1.25.68,2.19,1.78,2.19a1.91,1.91,0,0,0,1.48-.76l.49.54a2.6,2.6,0,0,1-2,1c-1.66,0-2.66-1.37-2.66-3.27S115.82,39,117.39,39Zm-1.57,2.88h3.11c0-1-.43-2.11-1.56-2.11S115.84,40.93,115.82,41.84Z" transform="translate(-4.11 -0.62)"/><path class="cls-4" d="M124.53,44.65a1.94,1.94,0,0,1-1.63.83A1.91,1.91,0,0,1,121,43.41a1.87,1.87,0,0,1,1.88-2,1.94,1.94,0,0,1,1.63.79V41.08a1.17,1.17,0,0,0-1.27-1.32,2,2,0,0,0-1.56.76l-.41-.66a2.88,2.88,0,0,1,2.11-.9,1.83,1.83,0,0,1,2.06,2v4.34h-.93Zm0-1.81a1.5,1.5,0,0,0-1.34-.79A1.24,1.24,0,0,0,122,43.42a1.26,1.26,0,0,0,1.23,1.39,1.5,1.5,0,0,0,1.34-.79Z" transform="translate(-4.11 -0.62)"/><path class="cls-4" d="M130.65,44.46a2.28,2.28,0,0,1-1.8,1c-1.06,0-1.56-.53-1.56-1.66v-4.7h.92v4.43c0,.82.38,1.1,1,1.1a1.76,1.76,0,0,0,1.46-1V39.12h.92v6.2h-.92Z" transform="translate(-4.11 -0.62)"/><path class="cls-4" d="M133.6,44.08V39.93h-.82v-.81h.82v-1.7h.93v1.7h1.05v.81h-1.05v4c0,.47.14.74.5.74a.7.7,0,0,0,.54-.24l.28.69a1.34,1.34,0,0,1-1,.38C134,45.48,133.6,45,133.6,44.08Z" transform="translate(-4.11 -0.62)"/><path class="cls-4" d="M136.78,37.45a.63.63,0,1,1,1.26,0,.63.63,0,1,1-1.26,0Zm.18,1.67h.91v6.2H137Z" transform="translate(-4.11 -0.62)"/><path class="cls-4" d="M139.94,39.93h-.83v-.81h.83v-.76c0-1.09.61-1.74,1.51-1.74a1.81,1.81,0,0,1,.8.18l-.22.72a1,1,0,0,0-.41-.1c-.49,0-.76.33-.76.94v.76h1.06v.81h-1.06v5.39h-.92Z" transform="translate(-4.11 -0.62)"/><path class="cls-4" d="M146.49,44.46a2.26,2.26,0,0,1-1.8,1c-1.05,0-1.55-.53-1.55-1.66v-4.7h.91v4.43c0,.82.38,1.1,1,1.1a1.76,1.76,0,0,0,1.45-1V39.12h.93v6.2h-.93Z" transform="translate(-4.11 -0.62)"/><path class="cls-4" d="M149.27,36.75h.91v8.57h-.91Z" transform="translate(-4.11 -0.62)"/><path class="cls-4" d="M152.65,44.08a.69.69,0,1,1,0,1.37.69.69,0,1,1,0-1.37Z" transform="translate(-4.11 -0.62)"/></svg>