<?xml version="1.0" encoding="UTF-8" standalone="no"?>
<!DOCTYPE svg PUBLIC "-//W3C//DTD SVG 1.1//EN" "http://www.w3.org/Graphics/SVG/1.1/DTD/svg11.dtd">
<svg width="100%" height="100%" viewBox="0 0 307 62" version="1.1" xmlns="http://www.w3.org/2000/svg" xmlns:xlink="http://www.w3.org/1999/xlink" xml:space="preserve" xmlns:serif="http://www.serif.com/" style="fill-rule:evenodd;clip-rule:evenodd;stroke-linejoin:round;stroke-miterlimit:2;">
    <g transform="matrix(1.33333,0,0,1.33333,0,0)">
        <g transform="matrix(0.662633,0,0,0.662633,-507.096,-127.294)">
            <g transform="matrix(75,0,0,75,764.926,244.932)">
                <path d="M0.299,-0.596C0.288,-0.6 0.278,-0.603 0.27,-0.606C0.262,-0.609 0.253,-0.61 0.243,-0.61C0.218,-0.61 0.2,-0.602 0.189,-0.586C0.178,-0.569 0.173,-0.551 0.173,-0.53L0.173,-0.465L0.299,-0.465L0.299,-0.387L0.173,-0.387L0.173,0L0.081,0L0.081,-0.387L0.003,-0.387L0.003,-0.465L0.081,-0.465L0.081,-0.563C0.081,-0.603 0.093,-0.635 0.116,-0.658C0.138,-0.681 0.175,-0.693 0.224,-0.693C0.24,-0.693 0.254,-0.692 0.265,-0.689C0.276,-0.686 0.288,-0.683 0.299,-0.679L0.299,-0.596Z" style="fill:rgb(239,35,60);fill-rule:nonzero;"/>
            </g>
            <g transform="matrix(75,0,0,75,785.251,244.932)">
                <path d="M0.517,-0.233C0.517,-0.198 0.511,-0.166 0.498,-0.137C0.485,-0.107 0.467,-0.081 0.446,-0.059C0.424,-0.037 0.399,-0.02 0.37,-0.008C0.341,0.005 0.311,0.011 0.279,0.011C0.244,0.011 0.211,0.005 0.181,-0.008C0.151,-0.021 0.125,-0.038 0.104,-0.06C0.082,-0.082 0.065,-0.108 0.053,-0.138C0.041,-0.167 0.035,-0.199 0.035,-0.233C0.035,-0.266 0.041,-0.298 0.053,-0.328C0.065,-0.357 0.082,-0.383 0.103,-0.405C0.124,-0.427 0.15,-0.444 0.18,-0.457C0.209,-0.47 0.242,-0.476 0.277,-0.476C0.312,-0.476 0.345,-0.469 0.375,-0.456C0.404,-0.443 0.43,-0.425 0.451,-0.403C0.471,-0.38 0.488,-0.354 0.5,-0.325C0.511,-0.296 0.517,-0.265 0.517,-0.233ZM0.273,-0.071C0.294,-0.071 0.313,-0.075 0.331,-0.084C0.348,-0.093 0.364,-0.104 0.377,-0.119C0.39,-0.134 0.4,-0.151 0.407,-0.171C0.414,-0.19 0.418,-0.211 0.418,-0.233C0.418,-0.254 0.415,-0.275 0.408,-0.294C0.401,-0.313 0.392,-0.331 0.379,-0.346C0.366,-0.361 0.351,-0.372 0.334,-0.381C0.317,-0.39 0.297,-0.394 0.276,-0.394C0.257,-0.394 0.239,-0.39 0.222,-0.382C0.205,-0.373 0.19,-0.362 0.177,-0.347C0.164,-0.332 0.153,-0.315 0.146,-0.296C0.138,-0.276 0.134,-0.255 0.134,-0.232C0.134,-0.211 0.137,-0.19 0.145,-0.171C0.152,-0.152 0.161,-0.135 0.174,-0.12C0.187,-0.105 0.201,-0.093 0.218,-0.084C0.235,-0.075 0.253,-0.071 0.273,-0.071Z" style="fill:rgb(239,35,60);fill-rule:nonzero;"/>
            </g>
            <g transform="matrix(75,0,0,75,826.651,244.932)">
                <path d="M0.342,-0.373C0.333,-0.376 0.325,-0.379 0.317,-0.382C0.309,-0.385 0.301,-0.386 0.292,-0.386C0.273,-0.386 0.256,-0.381 0.241,-0.372C0.225,-0.363 0.211,-0.35 0.2,-0.335C0.188,-0.319 0.179,-0.301 0.173,-0.281C0.166,-0.26 0.163,-0.239 0.163,-0.216L0.163,0L0.071,0L0.071,-0.465L0.155,-0.465L0.162,-0.378L0.164,-0.378C0.175,-0.41 0.192,-0.434 0.214,-0.449C0.235,-0.464 0.261,-0.472 0.292,-0.472C0.3,-0.472 0.308,-0.472 0.316,-0.471C0.323,-0.47 0.332,-0.469 0.342,-0.466L0.342,-0.373Z" style="fill:rgb(239,35,60);fill-rule:nonzero;"/>
            </g>
            <g transform="matrix(75,0,0,75,850.126,244.932)">
                <path d="M0.136,-0.234C0.137,-0.209 0.142,-0.186 0.152,-0.167C0.161,-0.147 0.172,-0.131 0.187,-0.118C0.202,-0.105 0.218,-0.095 0.237,-0.088C0.255,-0.081 0.274,-0.078 0.293,-0.078C0.326,-0.078 0.358,-0.087 0.387,-0.104C0.416,-0.121 0.443,-0.142 0.466,-0.165L0.466,-0.053C0.437,-0.033 0.407,-0.017 0.376,-0.006C0.345,0.005 0.311,0.011 0.275,0.011C0.24,0.011 0.208,0.005 0.179,-0.009C0.15,-0.022 0.125,-0.039 0.104,-0.061C0.083,-0.083 0.066,-0.109 0.055,-0.139C0.043,-0.168 0.037,-0.2 0.037,-0.233C0.037,-0.268 0.043,-0.3 0.056,-0.33C0.069,-0.36 0.086,-0.386 0.108,-0.407C0.129,-0.428 0.154,-0.445 0.182,-0.458C0.21,-0.47 0.24,-0.476 0.271,-0.476C0.299,-0.476 0.326,-0.471 0.352,-0.461C0.377,-0.451 0.4,-0.436 0.419,-0.417C0.438,-0.398 0.454,-0.374 0.465,-0.345C0.476,-0.316 0.482,-0.283 0.482,-0.246L0.482,-0.234L0.136,-0.234ZM0.374,-0.308C0.369,-0.339 0.357,-0.363 0.336,-0.378C0.315,-0.393 0.294,-0.4 0.271,-0.4C0.24,-0.4 0.214,-0.391 0.194,-0.373C0.173,-0.355 0.158,-0.333 0.148,-0.308L0.374,-0.308Z" style="fill:rgb(239,35,60);fill-rule:nonzero;"/>
            </g>
            <g transform="matrix(75,0,0,75,888.376,244.932)">
                <path d="M0.105,-0.465L0.236,-0.106L0.37,-0.465L0.47,-0.465L0.279,0L0.188,0L0.002,-0.465L0.105,-0.465Z" style="fill:rgb(239,35,60);fill-rule:nonzero;"/>
            </g>
            <g transform="matrix(75,0,0,75,922.201,244.932)">
                <path d="M0.136,-0.234C0.137,-0.209 0.142,-0.186 0.152,-0.167C0.161,-0.147 0.172,-0.131 0.187,-0.118C0.202,-0.105 0.218,-0.095 0.237,-0.088C0.255,-0.081 0.274,-0.078 0.293,-0.078C0.326,-0.078 0.358,-0.087 0.387,-0.104C0.416,-0.121 0.443,-0.142 0.466,-0.165L0.466,-0.053C0.437,-0.033 0.407,-0.017 0.376,-0.006C0.345,0.005 0.311,0.011 0.275,0.011C0.24,0.011 0.208,0.005 0.179,-0.009C0.15,-0.022 0.125,-0.039 0.104,-0.061C0.083,-0.083 0.066,-0.109 0.055,-0.139C0.043,-0.168 0.037,-0.2 0.037,-0.233C0.037,-0.268 0.043,-0.3 0.056,-0.33C0.069,-0.36 0.086,-0.386 0.108,-0.407C0.129,-0.428 0.154,-0.445 0.182,-0.458C0.21,-0.47 0.24,-0.476 0.271,-0.476C0.299,-0.476 0.326,-0.471 0.352,-0.461C0.377,-0.451 0.4,-0.436 0.419,-0.417C0.438,-0.398 0.454,-0.374 0.465,-0.345C0.476,-0.316 0.482,-0.283 0.482,-0.246L0.482,-0.234L0.136,-0.234ZM0.374,-0.308C0.369,-0.339 0.357,-0.363 0.336,-0.378C0.315,-0.393 0.294,-0.4 0.271,-0.4C0.24,-0.4 0.214,-0.391 0.194,-0.373C0.173,-0.355 0.158,-0.333 0.148,-0.308L0.374,-0.308Z" style="fill:rgb(239,35,60);fill-rule:nonzero;"/>
            </g>
            <g transform="matrix(75,0,0,75,959.701,244.932)">
                <path d="M0.342,-0.373C0.333,-0.376 0.325,-0.379 0.317,-0.382C0.309,-0.385 0.301,-0.386 0.292,-0.386C0.273,-0.386 0.256,-0.381 0.241,-0.372C0.225,-0.363 0.211,-0.35 0.2,-0.335C0.188,-0.319 0.179,-0.301 0.173,-0.281C0.166,-0.26 0.163,-0.239 0.163,-0.216L0.163,0L0.071,0L0.071,-0.465L0.155,-0.465L0.162,-0.378L0.164,-0.378C0.175,-0.41 0.192,-0.434 0.214,-0.449C0.235,-0.464 0.261,-0.472 0.292,-0.472C0.3,-0.472 0.308,-0.472 0.316,-0.471C0.323,-0.47 0.332,-0.469 0.342,-0.466L0.342,-0.373Z" style="fill:rgb(239,35,60);fill-rule:nonzero;"/>
            </g>
            <g transform="matrix(75,0,0,75,985.501,244.932)">
                <path d="M0.406,-0.372C0.383,-0.392 0.359,-0.408 0.333,-0.42C0.307,-0.431 0.281,-0.437 0.255,-0.437C0.229,-0.437 0.205,-0.431 0.184,-0.419C0.163,-0.407 0.144,-0.391 0.129,-0.372C0.113,-0.352 0.101,-0.33 0.092,-0.305C0.083,-0.28 0.079,-0.255 0.079,-0.229C0.079,-0.203 0.083,-0.178 0.092,-0.154C0.1,-0.13 0.112,-0.109 0.127,-0.09C0.141,-0.071 0.159,-0.056 0.18,-0.045C0.201,-0.034 0.224,-0.028 0.249,-0.028C0.298,-0.028 0.351,-0.051 0.406,-0.098L0.406,-0.047C0.374,-0.025 0.346,-0.01 0.322,-0.002C0.298,0.007 0.274,0.011 0.25,0.011C0.22,0.011 0.192,0.005 0.166,-0.007C0.139,-0.019 0.116,-0.036 0.097,-0.058C0.077,-0.079 0.061,-0.105 0.05,-0.134C0.038,-0.163 0.032,-0.195 0.032,-0.23C0.032,-0.268 0.038,-0.302 0.051,-0.333C0.063,-0.363 0.08,-0.389 0.101,-0.41C0.122,-0.431 0.146,-0.448 0.173,-0.459C0.2,-0.47 0.228,-0.476 0.258,-0.476C0.283,-0.476 0.307,-0.472 0.332,-0.464C0.356,-0.456 0.381,-0.443 0.406,-0.426L0.406,-0.372Z" style="fill:rgb(239,35,60);fill-rule:nonzero;"/>
            </g>
            <g transform="matrix(75,0,0,75,1016.78,244.932)">
                <path d="M0.469,-0.229C0.469,-0.194 0.463,-0.161 0.452,-0.132C0.44,-0.103 0.424,-0.077 0.405,-0.056C0.386,-0.035 0.363,-0.018 0.337,-0.007C0.311,0.005 0.284,0.011 0.256,0.011C0.223,0.011 0.193,0.005 0.166,-0.008C0.139,-0.021 0.115,-0.038 0.095,-0.06C0.075,-0.082 0.059,-0.108 0.049,-0.138C0.038,-0.167 0.032,-0.199 0.032,-0.233C0.032,-0.266 0.037,-0.298 0.048,-0.327C0.059,-0.356 0.074,-0.382 0.093,-0.404C0.112,-0.426 0.135,-0.444 0.162,-0.457C0.188,-0.47 0.217,-0.476 0.249,-0.476C0.281,-0.476 0.31,-0.47 0.337,-0.457C0.364,-0.444 0.387,-0.426 0.407,-0.404C0.426,-0.381 0.442,-0.355 0.453,-0.325C0.464,-0.295 0.469,-0.263 0.469,-0.229ZM0.251,-0.028C0.274,-0.028 0.296,-0.033 0.317,-0.044C0.338,-0.054 0.356,-0.068 0.372,-0.086C0.387,-0.104 0.4,-0.126 0.409,-0.151C0.418,-0.175 0.422,-0.203 0.422,-0.232C0.422,-0.261 0.418,-0.288 0.409,-0.313C0.4,-0.338 0.387,-0.359 0.372,-0.378C0.356,-0.396 0.338,-0.41 0.317,-0.421C0.296,-0.432 0.273,-0.437 0.249,-0.437C0.226,-0.437 0.205,-0.432 0.184,-0.422C0.163,-0.411 0.145,-0.397 0.13,-0.379C0.115,-0.36 0.102,-0.339 0.093,-0.314C0.084,-0.289 0.079,-0.263 0.079,-0.234C0.079,-0.206 0.084,-0.18 0.093,-0.155C0.101,-0.13 0.114,-0.108 0.13,-0.089C0.145,-0.07 0.164,-0.055 0.185,-0.045C0.206,-0.034 0.228,-0.028 0.251,-0.028Z" style="fill:rgb(239,35,60);fill-rule:nonzero;"/>
            </g>
            <g transform="matrix(75,0,0,75,1054.28,244.932)">
                <path d="M0.293,-0.416C0.285,-0.419 0.276,-0.422 0.267,-0.425C0.258,-0.427 0.248,-0.428 0.238,-0.428C0.217,-0.428 0.199,-0.423 0.183,-0.414C0.167,-0.405 0.154,-0.393 0.143,-0.378C0.132,-0.363 0.123,-0.345 0.118,-0.326C0.112,-0.307 0.109,-0.287 0.109,-0.267L0.109,0L0.066,0L0.066,-0.465L0.103,-0.465L0.103,-0.377L0.105,-0.377C0.133,-0.44 0.177,-0.471 0.237,-0.471C0.25,-0.471 0.262,-0.47 0.271,-0.468C0.28,-0.465 0.287,-0.463 0.293,-0.46L0.293,-0.416Z" style="fill:rgb(239,35,60);fill-rule:nonzero;"/>
            </g>
            <g transform="matrix(75,0,0,75,1077.08,244.932)">
                <path d="M0.469,-0.236C0.469,-0.201 0.463,-0.169 0.452,-0.139C0.44,-0.109 0.424,-0.083 0.405,-0.061C0.385,-0.038 0.362,-0.021 0.336,-0.008C0.309,0.005 0.281,0.011 0.251,0.011C0.219,0.011 0.191,0.005 0.168,-0.007C0.145,-0.019 0.125,-0.032 0.109,-0.045L0.109,0.217L0.066,0.217L0.066,-0.465L0.105,-0.465L0.105,-0.369L0.107,-0.369C0.122,-0.403 0.143,-0.429 0.168,-0.448C0.193,-0.467 0.225,-0.476 0.262,-0.476C0.292,-0.476 0.32,-0.47 0.345,-0.457C0.37,-0.444 0.391,-0.427 0.41,-0.405C0.429,-0.383 0.443,-0.358 0.454,-0.329C0.464,-0.3 0.469,-0.269 0.469,-0.236ZM0.109,-0.085C0.13,-0.069 0.152,-0.055 0.175,-0.045C0.198,-0.034 0.223,-0.028 0.251,-0.028C0.274,-0.028 0.296,-0.034 0.317,-0.045C0.338,-0.055 0.356,-0.07 0.372,-0.09C0.387,-0.109 0.4,-0.131 0.409,-0.156C0.418,-0.181 0.422,-0.208 0.422,-0.237C0.422,-0.265 0.418,-0.291 0.409,-0.316C0.4,-0.34 0.389,-0.361 0.374,-0.379C0.359,-0.397 0.342,-0.411 0.322,-0.422C0.301,-0.432 0.28,-0.437 0.257,-0.437C0.236,-0.437 0.216,-0.432 0.198,-0.423C0.18,-0.414 0.164,-0.401 0.151,-0.385C0.138,-0.369 0.127,-0.35 0.12,-0.329C0.113,-0.308 0.109,-0.285 0.109,-0.261L0.109,-0.085Z" style="fill:rgb(239,35,60);fill-rule:nonzero;"/>
            </g>
        </g>
    </g>
</svg>
